<mxfile host="Electron" modified="2023-11-25T10:10:56.969Z" agent="Mozilla/5.0 (Windows NT 10.0; Win64; x64) AppleWebKit/537.36 (KHTML, like Gecko) draw.io/22.1.2 Chrome/114.0.5735.289 Electron/25.9.4 Safari/537.36" etag="CeLU8Fd6pjwICiawRgEd" version="22.1.2" type="device">
  <diagram name="Page-1" id="e7e014a7-5840-1c2e-5031-d8a46d1fe8dd">
    <mxGraphModel dx="1195" dy="697" grid="1" gridSize="10" guides="1" tooltips="1" connect="1" arrows="1" fold="1" page="1" pageScale="1" pageWidth="1169" pageHeight="826" background="none" math="0" shadow="0">
      <root>
        <mxCell id="0" />
        <mxCell id="1" parent="0" />
        <mxCell id="R3RCuCPPgLQYnItFwcgn-41" value="if(instance == NULL) instance = new Singleton();&lt;br&gt;return instance;" style="shape=note;whiteSpace=wrap;html=1;backgroundOutline=1;darkOpacity=0.05;" vertex="1" parent="1">
          <mxGeometry x="180" y="300" width="290" height="100" as="geometry" />
        </mxCell>
        <mxCell id="R3RCuCPPgLQYnItFwcgn-42" value="Singleton" style="swimlane;fontStyle=0;childLayout=stackLayout;horizontal=1;startSize=26;fillColor=none;horizontalStack=0;resizeParent=1;resizeParentMax=0;resizeLast=0;collapsible=1;marginBottom=0;whiteSpace=wrap;html=1;" vertex="1" parent="1">
          <mxGeometry x="590" y="269" width="190" height="144" as="geometry" />
        </mxCell>
        <mxCell id="R3RCuCPPgLQYnItFwcgn-44" value="- instance: Singleton" style="text;strokeColor=none;fillColor=none;align=left;verticalAlign=top;spacingLeft=4;spacingRight=4;overflow=hidden;rotatable=0;points=[[0,0.5],[1,0.5]];portConstraint=eastwest;whiteSpace=wrap;html=1;" vertex="1" parent="R3RCuCPPgLQYnItFwcgn-42">
          <mxGeometry y="26" width="190" height="26" as="geometry" />
        </mxCell>
        <mxCell id="R3RCuCPPgLQYnItFwcgn-60" value="" style="line;strokeWidth=1;fillColor=none;align=left;verticalAlign=middle;spacingTop=-1;spacingLeft=3;spacingRight=3;rotatable=0;labelPosition=right;points=[];portConstraint=eastwest;strokeColor=inherit;" vertex="1" parent="R3RCuCPPgLQYnItFwcgn-42">
          <mxGeometry y="52" width="190" height="8" as="geometry" />
        </mxCell>
        <mxCell id="R3RCuCPPgLQYnItFwcgn-43" value="+ getInstance(): Singleton" style="text;strokeColor=none;fillColor=none;align=left;verticalAlign=top;spacingLeft=4;spacingRight=4;overflow=hidden;rotatable=0;points=[[0,0.5],[1,0.5]];portConstraint=eastwest;whiteSpace=wrap;html=1;" vertex="1" parent="R3RCuCPPgLQYnItFwcgn-42">
          <mxGeometry y="60" width="190" height="26" as="geometry" />
        </mxCell>
        <mxCell id="R3RCuCPPgLQYnItFwcgn-45" value="+ singletonOperation(): void" style="text;strokeColor=none;fillColor=none;align=left;verticalAlign=top;spacingLeft=4;spacingRight=4;overflow=hidden;rotatable=0;points=[[0,0.5],[1,0.5]];portConstraint=eastwest;whiteSpace=wrap;html=1;" vertex="1" parent="R3RCuCPPgLQYnItFwcgn-42">
          <mxGeometry y="86" width="190" height="26" as="geometry" />
        </mxCell>
        <mxCell id="R3RCuCPPgLQYnItFwcgn-59" value="- Singleton(): void" style="html=1;whiteSpace=wrap;" vertex="1" parent="R3RCuCPPgLQYnItFwcgn-42">
          <mxGeometry y="112" width="190" height="32" as="geometry" />
        </mxCell>
        <mxCell id="R3RCuCPPgLQYnItFwcgn-62" value="" style="endArrow=open;html=1;endSize=12;startArrow=diamondThin;startSize=14;startFill=0;edgeStyle=orthogonalEdgeStyle;align=left;verticalAlign=bottom;rounded=0;exitX=0.425;exitY=0.006;exitDx=0;exitDy=0;exitPerimeter=0;entryX=1.004;entryY=0.06;entryDx=0;entryDy=0;entryPerimeter=0;" edge="1" parent="1" target="R3RCuCPPgLQYnItFwcgn-42">
          <mxGeometry x="-1" y="3" relative="1" as="geometry">
            <mxPoint x="680" y="269.36400000000003" as="sourcePoint" />
            <mxPoint x="800" y="278" as="targetPoint" />
            <Array as="points">
              <mxPoint x="680" y="238" />
              <mxPoint x="810" y="238" />
              <mxPoint x="810" y="278" />
            </Array>
          </mxGeometry>
        </mxCell>
        <mxCell id="R3RCuCPPgLQYnItFwcgn-63" value="instance" style="text;strokeColor=none;fillColor=none;align=left;verticalAlign=top;spacingLeft=4;spacingRight=4;overflow=hidden;rotatable=0;points=[[0,0.5],[1,0.5]];portConstraint=eastwest;whiteSpace=wrap;html=1;" vertex="1" parent="1">
          <mxGeometry x="720" y="218" width="60" height="26" as="geometry" />
        </mxCell>
        <mxCell id="R3RCuCPPgLQYnItFwcgn-64" value="" style="endArrow=none;dashed=1;html=1;dashPattern=1 3;strokeWidth=2;rounded=0;" edge="1" parent="1" source="R3RCuCPPgLQYnItFwcgn-41">
          <mxGeometry width="50" height="50" relative="1" as="geometry">
            <mxPoint x="480" y="360" as="sourcePoint" />
            <mxPoint x="580" y="350" as="targetPoint" />
          </mxGeometry>
        </mxCell>
        <mxCell id="R3RCuCPPgLQYnItFwcgn-70" value="Singleton" style="text;align=center;fontStyle=1;verticalAlign=middle;spacingLeft=3;spacingRight=3;strokeColor=none;rotatable=0;points=[[0,0.5],[1,0.5]];portConstraint=eastwest;html=1;" vertex="1" parent="1">
          <mxGeometry x="20" y="20" width="210" height="90" as="geometry" />
        </mxCell>
      </root>
    </mxGraphModel>
  </diagram>
</mxfile>
